<svg width="512" height="512" viewBox="0 0 512 512" xmlns="http://www.w3.org/2000/svg">
  <defs>
    <radialGradient id="bg" cx="50%" cy="50%" r="70%">
      <stop offset="0%" stop-color="#102a43"/>
      <stop offset="100%" stop-color="#020617"/>
    </radialGradient>
    <linearGradient id="cyan" x1="0" y1="0" x2="1" y2="1">
      <stop offset="0%" stop-color="#00f5ff"/>
      <stop offset="100%" stop-color="#22c55e"/>
    </linearGradient>
    <filter id="glow">
      <feGaussianBlur stdDeviation="5" result="coloredBlur"/>
      <feMerge>
        <feMergeNode in="coloredBlur"/>
        <feMergeNode in="SourceGraphic"/>
      </feMerge>
    </filter>
  </defs>
  <rect width="512" height="512" rx="96" fill="url(#bg)"/>
  <circle cx="256" cy="256" r="150" fill="none" stroke="#0ea5e9" stroke-width="5" opacity="0.35"/>
  <circle cx="256" cy="256" r="105" fill="none" stroke="#22c55e" stroke-width="4" opacity="0.45"/>
  <circle cx="256" cy="256" r="60" fill="none" stroke="#00f5ff" stroke-width="3" opacity="0.65"/>
  <path d="M256 96 C344 96 416 168 416 256" fill="none" stroke="#00f5ff" stroke-width="12" stroke-linecap="round" filter="url(#glow)"/>
  <path d="M256 416 C168 416 96 344 96 256" fill="none" stroke="#22c55e" stroke-width="12" stroke-linecap="round" filter="url(#glow)"/>
  <rect x="188" y="218" width="136" height="94" rx="16" fill="#0f172a" stroke="url(#cyan)" stroke-width="5"/>
  <rect x="212" y="242" width="88" height="46" rx="8" fill="#020617" stroke="#00f5ff" stroke-width="3"/>
  <circle cx="226" cy="328" r="8" fill="#00f5ff"/>
  <circle cx="256" cy="328" r="8" fill="#22c55e"/>
  <circle cx="286" cy="328" r="8" fill="#facc15"/>
  <path d="M256 218 V178" stroke="#00f5ff" stroke-width="6" stroke-linecap="round"/>
  <path d="M226 218 L198 184" stroke="#22c55e" stroke-width="6" stroke-linecap="round"/>
  <path d="M286 218 L314 184" stroke="#22c55e" stroke-width="6" stroke-linecap="round"/>
  <text x="256" y="388" text-anchor="middle" font-family="Arial, Helvetica, sans-serif" font-size="42" font-weight="700" fill="#e0f2fe">CSI</text>
  <text x="256" y="430" text-anchor="middle" font-family="Arial, Helvetica, sans-serif" font-size="24" font-weight="700" fill="#7dd3fc">RADAR</text>
</svg>
